PathFileType	4	(X/Y/Z)	C:/Users/dbak576/Desktop/Duncan Bakke Modelling Files/H25s1/Static_H25s1.trc	
DataRate	CameraRate	NumFrames	NumMarkers	Units	OrigDataRate	OrigDataStartFrame	OrigNumFrames	
200.00	200.00	4	62	mm	200.00	112	296	
Frame#	Time	LFHD			RFHD			LBHD			RBHD			C7			T10			CLAV			STRN			RBack			LASI			RASI			LPSI			RPSI			RACR1			RUA1			RElbow			RElbowM			RFA1			RWRR			RWRU			RCAR			LACR1			LUA1			LElbow			LElbowM			LFA1			LWRR			LWRU			LCAR			RTH1			RTH3			RTH2			RTH4			RLFC			RMFC			RTB1			RTB3			RTB2			RTB4			RLMAL			RMMAL			RCAL			RMT1			RMT5			RToe			LTH1			LTH3			LTH2			LTH4			LLFC			LMFC			LTB1			LTB3			LTB2			LTB4			LLMAL			LMMAL			LCAL			LMT1			LMT5			LToe			*61			
		X1	Y1	Z1	X2	Y2	Z2	X3	Y3	Z3	X4	Y4	Z4	X5	Y5	Z5	X6	Y6	Z6	X7	Y7	Z7	X8	Y8	Z8	X9	Y9	Z9	X10	Y10	Z10	X11	Y11	Z11	X12	Y12	Z12	X13	Y13	Z13	X14	Y14	Z14	X15	Y15	Z15	X16	Y16	Z16	X17	Y17	Z17	X18	Y18	Z18	X19	Y19	Z19	X20	Y20	Z20	X21	Y21	Z21	X22	Y22	Z22	X23	Y23	Z23	X24	Y24	Z24	X25	Y25	Z25	X26	Y26	Z26	X27	Y27	Z27	X28	Y28	Z28	X29	Y29	Z29	X30	Y30	Z30	X31	Y31	Z31	X32	Y32	Z32	X33	Y33	Z33	X34	Y34	Z34	X35	Y35	Z35	X36	Y36	Z36	X37	Y37	Z37	X38	Y38	Z38	X39	Y39	Z39	X40	Y40	Z40	X41	Y41	Z41	X42	Y42	Z42	X43	Y43	Z43	X44	Y44	Z44	X45	Y45	Z45	X46	Y46	Z46	X47	Y47	Z47	X48	Y48	Z48	X49	Y49	Z49	X50	Y50	Z50	X51	Y51	Z51	X52	Y52	Z52	X53	Y53	Z53	X54	Y54	Z54	X55	Y55	Z55	X56	Y56	Z56	X57	Y57	Z57	X58	Y58	Z58	X59	Y59	Z59	X60	Y60	Z60	X61	Y61	Z61	X62	Y62	Z62	

112	0.555	-64.08372	-269.47571	1731.82947	40.65629	-275.73465	1725.78149	-93.75207	-436.56204	1724.03491	47.77560	-447.75015	1720.13000	-21.98463	-517.54218	1571.88818	-30.88939	-514.14240	1210.17249	-36.38167	-337.67206	1504.98767	-16.03274	-252.46657	1340.52734	86.21408	-581.38281	1469.99707	-174.77426	-297.20703	1049.18433	144.55087	-326.30038	1051.01453	-87.57088	-525.59637	1096.72815	21.69182	-532.83575	1085.55566	133.04910	-434.14566	1569.45593	283.13071	-425.91138	1519.13867	429.98282	-395.87112	1455.06335	400.02194	-322.00607	1409.14624	563.84802	-339.19144	1500.85168	684.48279	-262.41772	1512.27527	696.45953	-282.97574	1429.88586	746.13611	-279.13116	1476.72974	-186.28020	-443.48892	1559.19470	-334.49026	-429.44141	1521.82678	-491.25644	-393.45953	1473.53284	-466.99509	-331.66406	1413.24719	-625.08099	-337.62564	1513.05139	-734.83344	-261.29797	1518.58716	-741.58130	-301.69263	1435.89380	-791.70215	-289.48245	1493.24194	192.70349	-461.15530	834.54578	196.62889	-463.76489	662.19739	209.26920	-405.66272	747.13678	195.10159	-464.70544	746.13629	200.95535	-466.02670	522.92590	51.93096	-463.50443	502.05411	133.69766	-422.63513	367.34677	138.56157	-451.53528	196.78552	197.75299	-440.99536	285.02634	135.52049	-437.28265	281.64740	187.95946	-515.99896	80.54571	96.45435	-482.88165	99.41206	150.14047	-576.00134	43.84040	135.96957	-354.30405	52.03308	231.17630	-397.08148	32.66614	149.34570	-300.87631	33.67695	-243.77341	-393.19971	833.89807	-224.44026	-412.43698	661.42706	-219.69969	-346.22302	742.56427	-238.63150	-401.96030	748.58539	-209.34889	-458.99792	516.68756	-67.32339	-452.25012	505.03220	-115.22100	-431.26108	361.65866	-120.99588	-452.86511	191.69600	-177.73705	-426.01636	275.90808	-117.17947	-444.37143	277.20074	-186.36331	-504.85379	72.97508	-87.35061	-481.62827	91.18351	-149.68941	-569.72205	44.71461	-133.62982	-342.21490	45.07324	-224.33289	-390.15802	28.92452	-153.71036	-285.51123	27.23847	-222.27116	-462.78427	917.01886 
113	0.560	-64.06544	-269.48038	1731.85071	40.66306	-275.73596	1725.80872	-93.88530	-436.61688	1724.04236	47.78933	-447.79514	1720.14929	-21.98342	-517.56549	1571.90002	-30.90881	-514.14996	1210.14526	-36.33450	-337.68329	1504.99756	-16.03045	-252.46870	1340.51990	86.20090	-581.41864	1470.01172	-174.73871	-297.23935	1049.16797	144.54953	-326.27194	1051.00891	-87.55943	-525.62640	1096.74170	21.71913	-532.86304	1085.55774	133.10698	-434.16003	1569.47974	283.12329	-425.91452	1519.11658	429.96808	-395.87494	1455.04260	399.98724	-322.01294	1409.17395	563.86755	-339.18463	1500.83508	684.48669	-262.41486	1512.26392	696.41394	-282.91748	1429.82361	746.18268	-279.09940	1476.70728	-186.24046	-443.47644	1559.18835	-334.47311	-429.42661	1521.83301	-491.25726	-393.45282	1473.47852	-466.99469	-331.67499	1413.21509	-625.05237	-337.59705	1512.96094	-734.83313	-261.29071	1518.56421	-741.57343	-301.66574	1435.87402	-791.70789	-289.48407	1493.25391	192.72540	-461.12827	834.53656	196.57713	-463.76266	662.19360	209.29651	-405.66214	747.16919	195.14282	-464.69821	746.14618	201.00317	-466.10034	522.93585	51.90398	-463.49255	502.06241	133.74492	-422.59470	367.36951	138.54866	-451.53616	196.80205	197.75824	-440.99704	285.03342	135.53514	-437.27975	281.64557	187.95906	-515.99927	80.54594	96.45534	-482.88831	99.46178	150.11147	-575.99915	43.88873	135.95178	-354.31149	52.03016	231.16965	-397.06470	32.66913	149.34633	-300.85516	33.68107	-243.76982	-393.20264	833.90900	-224.45340	-412.49643	661.47266	-219.70253	-346.22223	742.55231	-238.59172	-401.98682	748.56348	-209.33511	-459.00320	516.70630	-67.21990	-452.23447	505.02814	-115.29746	-431.35236	361.62982	-121.01825	-452.84729	191.70006	-177.69821	-426.08093	275.89905	-117.19254	-444.37610	277.21222	-186.30290	-504.72867	72.85370	-87.37795	-481.66028	91.17826	-149.65999	-569.64410	44.69759	-133.63216	-342.22134	45.05379	-224.44286	-390.20544	28.92964	-153.70824	-285.50327	27.19476	-222.24719	-462.74933	917.00720 
114	0.565	-64.08641	-269.52985	1731.84131	40.68379	-275.73550	1725.79724	-93.90133	-436.62277	1724.06384	47.78869	-447.80051	1720.11768	-21.93679	-517.62268	1571.91187	-30.88061	-514.19659	1210.17139	-36.32787	-337.68005	1504.99475	-15.99883	-252.47260	1340.49023	86.22509	-581.37726	1469.97583	-174.74962	-297.25739	1049.18994	144.56831	-326.30365	1050.99231	-87.55936	-525.62848	1096.74280	21.67623	-532.88208	1085.55688	133.06876	-434.14191	1569.43787	283.11310	-425.91525	1519.12988	429.99942	-395.84030	1455.01624	400.09576	-321.97586	1409.16785	563.82227	-339.19443	1500.80493	684.48218	-262.41467	1512.23157	696.45465	-282.86765	1429.83582	746.18268	-279.09741	1476.70630	-186.26910	-443.48853	1559.21606	-334.47485	-429.43384	1521.81677	-491.26508	-393.45541	1473.45667	-466.95782	-331.65356	1413.21838	-625.02032	-337.58841	1512.93787	-734.77173	-261.24576	1518.53198	-741.54474	-301.66928	1435.83984	-791.67371	-289.44617	1493.22595	192.70291	-461.20090	834.54791	196.94374	-464.06296	662.12970	209.30470	-405.66571	747.17059	195.14944	-464.70425	746.16418	200.96562	-466.08417	522.93323	51.90565	-463.48602	502.09647	133.69507	-422.59149	367.33243	138.56177	-451.53366	196.78600	197.70940	-440.97815	285.02344	135.53140	-437.28448	281.64569	187.95488	-516.00464	80.52878	96.46289	-482.89148	99.40260	150.08252	-575.99762	43.86218	135.97504	-354.32050	52.03480	231.16261	-397.07901	32.68261	149.34486	-300.85291	33.67880	-243.77003	-393.20313	833.91003	-224.45749	-412.50235	661.47845	-219.70343	-346.22202	742.55219	-238.60249	-401.98465	748.56024	-209.33438	-459.00339	516.70660	-67.26151	-452.24567	505.03464	-115.30530	-431.32690	361.61935	-121.00990	-452.87592	191.67207	-177.73120	-426.04089	275.91156	-117.22193	-444.34689	277.27109	-186.28838	-504.75006	72.78980	-87.35760	-481.69107	91.18625	-149.69406	-569.70453	44.75225	-133.63660	-342.22031	45.04566	-224.33450	-390.16412	28.92252	-153.71335	-285.49924	27.21156	-222.22220	-462.71317	916.99506 
115	0.570	-64.01674	-269.55643	1731.85718	40.67905	-275.78757	1725.80835	-93.87077	-436.61307	1724.05103	47.79136	-447.79614	1720.14465	-21.94544	-517.62738	1571.89050	-30.89022	-514.14917	1210.17383	-36.32066	-337.68185	1504.99426	-15.96030	-252.50264	1340.49255	86.26865	-581.40826	1469.99170	-174.76065	-297.25589	1049.18164	144.57623	-326.31161	1050.99231	-87.56637	-525.62994	1096.73975	21.71695	-532.86761	1085.55835	133.06285	-434.14011	1569.43323	283.18143	-425.87491	1519.06970	430.04044	-395.82520	1454.99963	400.08173	-321.99472	1409.12646	563.86456	-339.18576	1500.83276	684.49799	-262.38870	1512.21008	696.43451	-282.89444	1429.82300	746.16937	-279.07425	1476.70532	-186.09203	-443.43774	1559.09729	-334.46606	-429.42316	1521.82678	-491.25516	-393.45184	1473.47717	-466.96182	-331.64209	1413.19946	-625.02625	-337.57922	1512.94495	-734.75885	-261.23557	1518.49304	-741.54236	-301.67020	1435.83777	-791.68359	-289.43954	1493.19922	192.70020	-461.21188	834.54663	196.62955	-463.76199	662.19690	209.30350	-405.66595	747.16919	195.07782	-464.71545	746.16791	200.94238	-466.03305	522.90759	51.90097	-463.48959	502.06470	133.69685	-422.58606	367.38391	138.56462	-451.53354	196.78352	197.67860	-440.96835	285.02759	135.53133	-437.28085	281.64557	187.94684	-516.01050	80.53192	96.45869	-482.87823	99.41012	150.08122	-575.99664	43.85839	135.94832	-354.30521	52.05343	231.14526	-397.07547	32.66332	149.34663	-300.88629	33.68154	-243.77502	-393.20508	833.92126	-224.46098	-412.49814	661.46588	-219.70374	-346.22198	742.55273	-238.58167	-401.91403	748.52606	-209.34871	-458.99747	516.68854	-67.30965	-452.24225	505.05887	-115.28648	-431.28699	361.61993	-121.02198	-452.87497	191.70103	-177.73453	-426.03940	275.91125	-117.21239	-444.41739	277.20276	-186.29582	-504.75787	72.80047	-87.39285	-481.63327	91.18851	-149.69763	-569.69482	44.72545	-133.62666	-342.23041	45.03750	-224.33824	-390.17093	28.92944	-153.71106	-285.51471	27.23161	-222.20575	-462.61469	916.96460 
